<svg width="0" height="0" class="hidden">
  <symbol xmlns="http://www.w3.org/2000/svg" fill="none" viewBox="0 0 288 112" id="Group 66">
    <path fill="#FFE6A3" stroke="#FFD324" stroke-width="10" d="M75.496 97.046c20.768-12.043 27.869-38.704 15.892-59.54C79.41 16.67 52.872 9.516 32.104 21.559s-27.87 38.704-15.892 59.54c11.977 20.836 38.515 27.99 59.284 15.947Z"></path>
    <path fill="#27120A" d="M41.3 58.852a20.358 20.358 0 0 1 .383-11.763 20.27 20.27 0 0 1 6.826-9.568 20.113 20.113 0 0 1 22.38-1.473 20.238 20.238 0 0 1 8.012 8.59 20.351 20.351 0 0 1 1.909 11.614 20.315 20.315 0 0 1-4.837 10.72 20.172 20.172 0 0 1-9.951 6.216 20.13 20.13 0 0 1-15.313-2.033A20.284 20.284 0 0 1 41.3 58.852Zm37.177-10.005a18.396 18.396 0 0 0-5.612-9.063 18.233 18.233 0 0 0-20.163-2.666 18.336 18.336 0 0 0-7.755 7.296 18.449 18.449 0 0 0 1.33 20.382 18.306 18.306 0 0 0 8.637 6.217 18.226 18.226 0 0 0 10.62.35 18.34 18.34 0 0 0 11.104-8.572 18.482 18.482 0 0 0 1.839-13.944Z"></path>
    <path fill="#4D2211" d="M86.029 49.094a3.867 3.867 0 0 0-1.647-1.476l.136-.203c.143-.218.27-.446.383-.682l.124-.281c.065-.161.131-.319.189-.484l.078-.265v-.041a7.144 7.144 0 0 0 .173-.794c.02-.136.041-.285.053-.434.013-.149 0-.236.021-.347V43.326c0-.133 0-.265-.029-.389s-.029-.248-.05-.364c-.02-.115-.036-.244-.06-.368l-.08-.372-.081-.322-.112-.414-.098-.302-.136-.384-.087-.224-.19-.45v-.038c-2.058-4.672-6.96-8.947-7.166-9.125-.704-.612-7.044-5.946-13.026-5.322-.442.046-.88.126-1.31.24-.95.252-2.218 1.145-3.544 2.481a3.38 3.38 0 0 0-1.379-.897 16.573 16.573 0 0 0-6.891-.906 10.393 10.393 0 0 0-4.739 1.639 10.451 10.451 0 0 0-3.429 3.67l-.202.364a2.84 2.84 0 0 0-1.276-.17 2.96 2.96 0 0 0-.795.203c-10.164 4.197-10.798 12.67-10.27 17.346.049.414.102.827.168 1.187l.09.513v.05l.107.516a3.54 3.54 0 0 0 1.38 2.096c.699.506 1.559.737 2.416.65a3.547 3.547 0 0 0 2.199-1.1 7.983 7.983 0 0 1 4.573-2.37 3.358 3.358 0 0 0 1.717-.827 4.978 4.978 0 0 0 2.363.377 16.52 16.52 0 0 1 6.15.736 3.278 3.278 0 0 0 2.948-.517l.058.1a14.303 14.303 0 0 0 .362.562l.074.107c.099.14.202.281.317.413l.082.116c.103.133.21.26.346.414l.095.116.354.413c.037.041.078.083.111.124l.362.368.145.145.32.302.215.198a21.711 21.711 0 0 0 1.14.93c.55.421 1.124.812 1.717 1.17.19.116.383.224.572.331.379.211.766.414 1.153.58.193.086.383.169.572.247.358.145.725.277 1.091.414a3.321 3.321 0 0 0 .202 2.783c.206.372.411.76.597 1.186l.037.083c.074.157.144.318.218.496l.086.215c.062.145.12.298.177.45l.083.224c.082.223.16.455.222.666l.025.078c.066.22.131.447.189.675l.054.231c.045.182.086.372.123.562l.045.232c.05.26.095.525.128.794.11.864.445 1.684.972 2.377a3.414 3.414 0 0 0-.532 1.981v.604a9.837 9.837 0 0 1-.078 1.013c-.02.153-.05.314-.078.471v.075c-.033.16-.07.33-.124.512v.046a6.259 6.259 0 0 1-.156.492v.058a9.98 9.98 0 0 1-.206.5l-.04.095c-.08.17-.166.34-.269.525l-.04.066c-.12.211-.223.377-.33.53a3.538 3.538 0 0 0 .984 4.99 3.508 3.508 0 0 0 1.865.559h1.445c.23 0 .47-.03.712-.054l.292-.03c.157 0 .317-.032.478-.053h.107c.547-.074 1.1-.17 1.647-.293l-.457-2.039.498 2.03c3.627-.827 6.562-2.543 8.731-5.16a17.465 17.465 0 0 0 3.594-8.142 2.848 2.848 0 0 0-.494-2.2c.132-.115.264-.223.412-.343.148-.12.338-.322.51-.496l.145-.153.3-.33.14-.166.037-.045.251-.31.16-.215.215-.302.152-.228.198-.318.132-.228.164-.305s.09-.17.124-.244c.033-.075.099-.211.152-.327l.02-.046.075-.173c.074-.174.14-.352.206-.53l.066-.21.032-.1.07-.227.07-.265v-.07l.058-.227.062-.294.041-.24c0-.103.037-.207.05-.318l.028-.223.037-.315V57.27c.078-3.312-1.247-6.269-2.371-8.175Z"></path>
    <path fill="#DE9F2D" d="M58.298 29.718c-1.684 2.894-5.294 9.981-4.26 16.66a1.246 1.246 0 0 1-.399 1.162 1.233 1.233 0 0 1-1.199.247 18.596 18.596 0 0 0-6.933-.827 2.873 2.873 0 0 1-2.01-.59 2.897 2.897 0 0 1-1.081-1.8c-.527-2.923-.626-7.856 2.573-13.306 3.388-5.789 9.711-4.474 12.61-3.481a1.315 1.315 0 0 1 .81.8 1.328 1.328 0 0 1-.11 1.135Z"></path>
    <path fill="#FFD324" d="m56.454 33.29-.074-.05c-.362-.185-.68.336-.856.625-.655 1.063-.741 2.382-1.38 3.449-.358.6-.905 1.05-1.3 1.62-.478.704-.577 1.555-.745 2.37-.227 1.1-.573 2.117-1.482 2.832-1.462 1.15-4.014 1.381-5.706.67-2.405-1.009-2.627-3.792-2.536-6.347a18.342 18.342 0 0 0 .04 6.12c.124.715.51 1.357 1.083 1.8.572.443 1.29.653 2.01.59a18.596 18.596 0 0 1 6.932.827 1.231 1.231 0 0 0 1.552-.776c.07-.204.086-.423.046-.634-.725-4.698.84-9.59 2.416-13.096Z" opacity=".5"></path>
    <path fill="#DE9F2D" d="M41.716 32.542a.79.79 0 0 1 .85.172.8.8 0 0 1 .187.85c-1.008 2.642-2.511 7.95-.502 12.334.305.665-.26 1.434-.98 1.55a10.088 10.088 0 0 0-5.763 3.002 1.436 1.436 0 0 1-2.11.02 1.445 1.445 0 0 1-.36-.694c-.96-4.416-1.264-13.128 8.678-17.234Z"></path>
    <path fill="#FFD324" d="M41.42 38.583c-.33-.045-.412.186-.569.62a6.453 6.453 0 0 0-.341 1.63c-.128 1.136-.058 2.298-.297 3.415-.412 1.993-2.47 3.721-4.364 4.292-1.42.413-2.548.149-3.149-.827.076.695.19 1.385.342 2.067a1.446 1.446 0 0 0 1.03 1.097 1.43 1.43 0 0 0 1.44-.423 10.088 10.088 0 0 1 5.763-3.002c.72-.115 1.285-.884.98-1.55-1.083-2.361-1.144-4.97-.836-7.319Z" opacity=".5"></path>
    <path fill="#DE9F2D" d="M82.85 45.017c3.471-5.326-6.685-14.129-6.685-14.129s-6.998-6.087-12.445-4.644c-3.433.91-15.232 16.313-4.22 25.277 11.013 8.964 20.716-2.456 23.35-6.504Z"></path>
    <path fill="#FFD324" d="M81.307 36.656c.066.145.132.294.19.447 1.21 3.204.242 6.657-1.898 9.208-.91 1.092-1.98 2.034-3.376 2.402-.898.24-1.84.207-2.746.414a11.412 11.412 0 0 0-2.882 1.24c-3.022 1.588-7.035 1.898-10.04.079a8.517 8.517 0 0 1-2.907-3.052 13.627 13.627 0 0 1-.997-2.24c-.135-.381-.444-1.316-.897-1.436l-.745.153c.379 2.738 1.704 5.376 4.47 7.65 11.005 8.968 20.716-2.456 23.351-6.504 1.618-2.432.33-5.636-1.523-8.361Z" opacity=".5"></path>
    <path fill="#DE9F2D" d="M82.139 48.374c-2.52 2.895-8.485 7.488-15.195 7.856a1.232 1.232 0 0 0-1.052.628 1.243 1.243 0 0 0 .002 1.23 18.718 18.718 0 0 1 2.227 6.648c.087.72.44 1.382.99 1.853.55.47 1.256.717 1.978.69 2.956-.087 7.773-1 12.433-5.272 4.94-4.52 2.359-10.465.794-13.108-.432-.727-1.63-1.182-2.177-.525Z"></path>
    <path fill="#FFD324" d="M85.107 58.533c-.622 1.142-1.416 2.3-2.553 2.974-1.05.624-2.181.578-3.355.574a3.167 3.167 0 0 0-2.47.997c-.45.447-.939.852-1.461 1.211-.988.662-2.17 1.24-3.384 1.2-1.952-.05-2.54-1.795-3.26-3.309a9.486 9.486 0 0 0-1.368-2.381 1.205 1.205 0 0 0-.712-.414 18.052 18.052 0 0 1 1.577 5.376c.087.72.44 1.381.99 1.852.55.471 1.256.718 1.978.69 2.956-.086 7.773-1 12.433-5.271a8.305 8.305 0 0 0 2.15-2.885 8.338 8.338 0 0 0 .732-3.529 16.921 16.921 0 0 1-1.297 2.915Z" opacity=".5"></path>
    <path fill="#DE9F2D" d="M82.97 65.716a.8.8 0 0 0-.332-.816.792.792 0 0 0-.878-.01c-2.363 1.537-7.221 4.134-11.91 3.05-.712-.16-1.342.555-1.31 1.282a10.176 10.176 0 0 1-1.724 6.281 1.442 1.442 0 0 0 1.16 2.27c4.505.07 13.06-1.439 14.994-12.057Z"></path>
    <path fill="#FFD324" d="M75.865 75.338c-1.515.542-4.405 1.133-5.517-.476-.634-.913-.469-2.174-.551-3.22-.066-.774-.268-1.882-1.235-1.655a10.061 10.061 0 0 1-1.738 5.529 1.442 1.442 0 0 0 1.161 2.27c3.183.037 8.382-.711 11.844-4.892a12.624 12.624 0 0 1-3.964 2.444Z" opacity=".5"></path>
    <path fill="#FCEE21" d="M80.117 37.955a1.782 1.782 0 0 0-.383-.798c-2.058-2.58-4.549-5.491-7.377-7.245-2.194-1.36-6.068-2.48-8.513-1.447-5.546 2.353-8.76 12.59-6.027 17.842 2.82 5.42 11.815 4.263 16.084 1.534 2.223-1.422 5.352-3.899 6.397-6.43a3.931 3.931 0 0 0-.18-3.456ZM83.868 50.29a.71.71 0 0 0-.869-.505.672.672 0 0 0-.683.326c-1.272 1.87-3.549 3.308-5.484 4.429a19.909 19.909 0 0 1-3.557 1.596c-1.074.36-2.45.459-3.425 1.042-2.54 1.526-.333 5.73 1.956 6.202 1.61.335 3.062-.413 4.232-1.455.386-.348.765-1.373 1.19-1.683.93-.682 1.457.227 2.667.302a2.8 2.8 0 0 0 1.647-.273c3.474-1.935 3.35-6.782 2.326-9.982ZM80.076 66.981c-.169.1-.333.211-.494.327-1.474.864-3.174 1.162-4.853 1.36-1.038.12-2.326 0-3.113.827-1.107 1.166-.659 3.308.544 4.247 1.515 1.174 3.487.281 4.87-.645 1.568-1.055 4.252-3.27 4.36-5.313a.852.852 0 0 0-.4-.827.84.84 0 0 0-.914.024Z" opacity=".2"></path>
    <g fill="#fff" filter="url(#a)">
      <path d="M133.454 42.569a1.373 1.373 0 0 0-1.054-.47h-17.258c-.416 0-.768.156-1.054.47-.286.287-.429.653-.429 1.098v24.666c0 .445.143.824.429 1.137a1.43 1.43 0 0 0 1.054.432h2.772c.963 0 1.445-.523 1.445-1.569V47.98h8.824v20.353c0 1.046.481 1.569 1.444 1.569h2.773c.416 0 .767-.144 1.054-.432.286-.313.429-.692.429-1.137V43.667c0-.445-.143-.81-.429-1.098ZM147.245 48.098v4.627h5.973c.417 0 .768.144 1.055.432.286.314.429.68.429 1.098v2.627c0 .419-.143.785-.429 1.098a1.432 1.432 0 0 1-1.055.432h-5.973v5.647h8.277c.417 0 .768.157 1.054.47.287.288.43.654.43 1.098v2.706c0 .445-.143.824-.43 1.137a1.428 1.428 0 0 1-1.054.432H143.77c-.625 0-1.158-.236-1.601-.706a2.41 2.41 0 0 1-.625-1.647V44.608c0-.654.222-1.203.664-1.647.391-.47.911-.706 1.562-.706h11.752c.417 0 .768.144 1.054.431.287.314.43.693.43 1.138v2.705c0 .445-.143.81-.43 1.098a1.37 1.37 0 0 1-1.054.471h-8.277ZM164.774 69.902a1.43 1.43 0 0 1-1.054-.432 1.579 1.579 0 0 1-.429-1.098V43.824c0-.445.143-.824.429-1.138a1.43 1.43 0 0 1 1.054-.431h2.733c.417 0 .768.144 1.054.431.287.314.43.693.43 1.138v9.49h.039l7.692-10.236c.39-.549.937-.823 1.639-.823h3.124c.963 0 1.445.484 1.445 1.45 0 .288-.105.602-.313.942l-8.628 11.294 8.667 11.647c.209.288.313.588.313.902 0 .967-.482 1.45-1.445 1.45l-3.202-.038c-.676 0-1.21-.275-1.6-.824L169.186 59h-.195v9.372c0 .419-.143.785-.43 1.098a1.428 1.428 0 0 1-1.054.432h-2.733ZM210.336 67.745c.026.104.039.287.039.549 0 .444-.143.823-.43 1.137-.312.314-.69.47-1.132.47h-2.46c-.937 0-1.536-.47-1.796-1.411l-1.366-4.667h-6.989l-1.406 4.667c-.26.941-.846 1.412-1.757 1.412h-2.421a1.54 1.54 0 0 1-1.132-.47 1.628 1.628 0 0 1-.429-1.138c0-.261.013-.445.039-.55l7.496-24.313c.261-.915.859-1.372 1.796-1.372h2.655c.937 0 1.536.457 1.796 1.372l7.497 24.314Zm-10.659-15.922-1.835 6.314h3.67l-1.835-6.313ZM235.03 51.431c0 2.484-.846 4.628-2.538 6.432-1.718 1.856-3.8 2.784-6.247 2.784h-2.694v7.686c0 1.046-.482 1.569-1.445 1.569h-2.772c-.963 0-1.445-.523-1.445-1.569V44.608c0-.628.209-1.177.625-1.647.443-.47.976-.706 1.601-.706h6.13c2.421 0 4.503.928 6.247 2.784 1.692 1.804 2.538 3.935 2.538 6.392Zm-5.701 0c0-.94-.325-1.738-.976-2.392-.599-.68-1.366-1.02-2.303-1.02h-2.499v6.863h2.499c.885 0 1.652-.34 2.303-1.02.651-.68.976-1.49.976-2.43ZM260.222 42.098c.417 0 .768.157 1.055.47.286.288.429.654.429 1.099v24.666c0 .445-.143.824-.429 1.137a1.432 1.432 0 0 1-1.055.432h-2.772c-.963 0-1.444-.523-1.444-1.569V58.57h-8.824v9.764c0 1.046-.482 1.569-1.445 1.569h-2.772a1.43 1.43 0 0 1-1.054-.432 1.625 1.625 0 0 1-.43-1.137V43.667c0-.445.143-.81.43-1.098.286-.314.638-.47 1.054-.47h2.772c.417 0 .755.156 1.015.47.287.287.43.653.43 1.098v9.098h8.824v-9.098c0-.445.143-.81.429-1.098.26-.314.599-.47 1.015-.47h2.772ZM274.638 51c0-.863.26-1.582.781-2.157.547-.549 1.249-.823 2.108-.823h2.772v5.882h-2.772c-.833 0-1.522-.275-2.069-.824-.547-.549-.82-1.242-.82-2.078Zm-6.247 17.333c0 .445.143.824.43 1.137.286.288.65.432 1.093.432h2.811c.651 0 1.158-.288 1.523-.863l5.505-9.373h.546v8.667c0 .445.144.824.43 1.137a1.43 1.43 0 0 0 1.054.432h2.733c.417 0 .768-.144 1.054-.432.287-.313.43-.692.43-1.137V44.608c0-.654-.221-1.203-.664-1.647-.39-.47-.911-.706-1.562-.706h-6.442c-2.369 0-4.373.863-6.013 2.588-1.613 1.673-2.42 3.712-2.42 6.118a8.69 8.69 0 0 0 1.366 4.745c.885 1.438 2.083 2.496 3.592 3.176l-5.232 8.588a1.652 1.652 0 0 0-.234.863Z"></path>
    </g>
    <defs>
      <filter id="a" width="174.341" height="29.882" x="113.659" y="42.059" color-interpolation-filters="sRGB" filterUnits="userSpaceOnUse">
        <feFlood flood-opacity="0" result="BackgroundImageFix"></feFlood>
        <feColorMatrix in="SourceAlpha" result="hardAlpha" values="0 0 0 0 0 0 0 0 0 0 0 0 0 0 0 0 0 0 127 0"></feColorMatrix>
        <feOffset dx="2" dy="2"></feOffset>
        <feColorMatrix values="0 0 0 0 1 0 0 0 0 1 0 0 0 0 1 0 0 0 1 0"></feColorMatrix>
        <feBlend in2="BackgroundImageFix" result="effect1_dropShadow_1033_6139"></feBlend>
        <feColorMatrix in="SourceAlpha" result="hardAlpha" values="0 0 0 0 0 0 0 0 0 0 0 0 0 0 0 0 0 0 127 0"></feColorMatrix>
        <feOffset dx="1" dy="1"></feOffset>
        <feColorMatrix values="0 0 0 0 1 0 0 0 0 0.827451 0 0 0 0 0.141176 0 0 0 1 0"></feColorMatrix>
        <feBlend in2="effect1_dropShadow_1033_6139" result="effect2_dropShadow_1033_6139"></feBlend>
        <feBlend in="SourceGraphic" in2="effect2_dropShadow_1033_6139" result="shape"></feBlend>
      </filter>
    </defs>
  </symbol>
   <symbol fill="none" xmlns="http://www.w3.org/2000/svg" viewBox="0 0 25 25" id="long_right">
    <path d="M18.67 13.5L16.09 16.09L17.5 17.5L22.5 12.5L17.5 7.5L16.09 8.91L18.67 11.5H2.5V13.5H18.67Z" fill="#1A202C"></path>
  </symbol>
  <symbol fill="none" xmlns="http://www.w3.org/2000/svg" viewBox="0 0 24 24" id="map-pin">
    <path fill-rule="evenodd" clip-rule="evenodd" d="M12 1.75C9.81196 1.75 7.71354 2.61919 6.16637 4.16637C4.61919 5.71354 3.75 7.81196 3.75 10C3.75 13.1985 5.8243 16.2657 8.04446 18.6092C9.13921 19.7648 10.2365 20.7099 11.0609 21.3664C11.4432 21.6708 11.7656 21.9122 12 22.0825C12.2344 21.9122 12.5568 21.6708 12.9391 21.3664C13.7635 20.7099 14.8608 19.7648 15.9555 18.6092C18.1757 16.2657 20.25 13.1985 20.25 10C20.25 7.81196 19.3808 5.71354 17.8336 4.16637C16.2865 2.61919 14.188 1.75 12 1.75ZM12 23C11.584 23.624 11.5835 23.6238 11.5835 23.6238L11.581 23.6221L11.5748 23.6179L11.5528 23.603C11.5339 23.5902 11.5068 23.5716 11.4719 23.5475C11.4021 23.4992 11.3014 23.4284 11.1742 23.3365C10.9197 23.1528 10.5587 22.8839 10.1266 22.5398C9.2635 21.8526 8.11079 20.8602 6.95554 19.6408C4.6757 17.2343 2.25 13.8015 2.25 10C2.25 7.41414 3.27723 4.93419 5.10571 3.10571C6.93419 1.27723 9.41414 0.25 12 0.25C14.5859 0.25 17.0658 1.27723 18.8943 3.10571C20.7228 4.93419 21.75 7.41414 21.75 10C21.75 13.8015 19.3243 17.2343 17.0445 19.6408C15.8892 20.8602 14.7365 21.8526 13.8734 22.5398C13.4413 22.8839 13.0803 23.1528 12.8258 23.3365C12.6986 23.4284 12.5979 23.4992 12.5281 23.5475C12.4932 23.5716 12.4661 23.5902 12.4472 23.603L12.4252 23.6179L12.419 23.6221L12.4171 23.6233C12.4171 23.6233 12.416 23.624 12 23ZM12 23L12.416 23.624C12.1641 23.792 11.8355 23.7917 11.5835 23.6238L12 23Z" fill="white"></path>
    <path fill-rule="evenodd" clip-rule="evenodd" d="M12 7.75C10.7574 7.75 9.75 8.75736 9.75 10C9.75 11.2426 10.7574 12.25 12 12.25C13.2426 12.25 14.25 11.2426 14.25 10C14.25 8.75736 13.2426 7.75 12 7.75ZM8.25 10C8.25 7.92893 9.92893 6.25 12 6.25C14.0711 6.25 15.75 7.92893 15.75 10C15.75 12.0711 14.0711 13.75 12 13.75C9.92893 13.75 8.25 12.0711 8.25 10Z" fill="white"></path>
  </symbol>
  <symbol fill="none" xmlns="http://www.w3.org/2000/svg" viewBox="0 0 24 24" id="calendar">
    <path fill-rule="evenodd" clip-rule="evenodd" d="M5 4.75C4.30964 4.75 3.75 5.30964 3.75 6V20C3.75 20.6904 4.30964 21.25 5 21.25H19C19.6904 21.25 20.25 20.6904 20.25 20V6C20.25 5.30964 19.6904 4.75 19 4.75H5ZM2.25 6C2.25 4.48122 3.48122 3.25 5 3.25H19C20.5188 3.25 21.75 4.48122 21.75 6V20C21.75 21.5188 20.5188 22.75 19 22.75H5C3.48122 22.75 2.25 21.5188 2.25 20V6Z" fill="white"></path>
    <path fill-rule="evenodd" clip-rule="evenodd" d="M16 1.25C16.4142 1.25 16.75 1.58579 16.75 2V6C16.75 6.41421 16.4142 6.75 16 6.75C15.5858 6.75 15.25 6.41421 15.25 6V2C15.25 1.58579 15.5858 1.25 16 1.25Z" fill="white"></path>
    <path fill-rule="evenodd" clip-rule="evenodd" d="M8 1.25C8.41421 1.25 8.75 1.58579 8.75 2V6C8.75 6.41421 8.41421 6.75 8 6.75C7.58579 6.75 7.25 6.41421 7.25 6V2C7.25 1.58579 7.58579 1.25 8 1.25Z" fill="white"></path>
    <path fill-rule="evenodd" clip-rule="evenodd" d="M2.25 10C2.25 9.58579 2.58579 9.25 3 9.25H21C21.4142 9.25 21.75 9.58579 21.75 10C21.75 10.4142 21.4142 10.75 21 10.75H3C2.58579 10.75 2.25 10.4142 2.25 10Z" fill="white"></path>
  </symbol>
  <symbol fill="none" xmlns="http://www.w3.org/2000/svg" viewBox="0 0 24 24" id="fone">
    <path d="M17 2H7C5.89543 2 5 2.89543 5 4V20C5 21.1046 5.89543 22 7 22H17C18.1046 22 19 21.1046 19 20V4C19 2.89543 18.1046 2 17 2Z" stroke="white" stroke-width="1.5" stroke-linecap="round" stroke-linejoin="round"></path>
    <path d="M12 18H12.01" stroke="white" stroke-width="1.5" stroke-linecap="round" stroke-linejoin="round"></path>
  </symbol>  
  <symbol fill="none" xmlns="http://www.w3.org/2000/svg" viewBox="0 0 60 75" id="Group 144">
    <path fill-rule="evenodd" clip-rule="evenodd" d="M50.6897 50C56.4255 44.7179 60 37.2625 60 29C60 12.9837 46.5685 0 30 0C13.4315 0 0 12.9837 0 29C0 37.2671 3.57851 44.7262 9.31985 50.0088L30.0027 75L50.6919 50H50.6897Z" fill="#FFD324"></path>
    <circle cx="30" cy="29" r="16" fill="white"></circle>
    <path d="M27.525 34.6568L22.575 29.7068L23.989 28.2928L27.643 31.9428L27.525 31.8278L36.01 23.3428L37.424 24.7568L28.939 33.2428L27.526 34.6558L27.525 34.6568Z" fill="url(#paint0_linear_997_5923)"></path>
    <defs>
      <linearGradient id="paint0_linear_997_5923" x1="39.252" y1="19.5574" x2="21.2327" y2="26.2531" gradientUnits="userSpaceOnUse">
        <stop stop-color="#333333"></stop>
        <stop offset="1" stop-color="#191919"></stop>
      </linearGradient>
    </defs>
  </symbol>
</svg>
